# This file uses centimeters as units for non-parametric coordinates.

g default
v -0.500000 0.829496 0.500000
v 0.500000 0.829496 0.500000
v -0.500000 0.982230 0.500000
v 0.500000 0.982230 0.500000
v -0.500000 0.982230 -0.500000
v 0.500000 0.982230 -0.500000
v -0.500000 0.829496 -0.500000
v 0.500000 0.829496 -0.500000
v -0.386056 0.982230 -0.500000
v -0.386056 0.829496 -0.500000
v -0.386056 0.829496 0.500000
v -0.386056 0.982230 0.500000
v 0.391762 0.982230 -0.500000
v 0.391762 0.829496 -0.500000
v 0.391762 0.829496 0.500000
v 0.391762 0.982230 0.500000
v 0.391762 0.982230 -0.391762
v -0.386056 0.982230 -0.391762
v -0.500000 0.982230 -0.391762
v -0.500000 0.829496 -0.391762
v -0.386056 0.829496 -0.391762
v 0.391762 0.829496 -0.391762
v 0.500000 0.829496 -0.391762
v 0.500000 0.982230 -0.391762
v 0.391762 0.982230 0.389860
v -0.386056 0.982230 0.389860
v -0.500000 0.982230 0.389860
v -0.500000 0.829496 0.389860
v -0.386056 0.829496 0.389860
v 0.391762 0.829496 0.389860
v 0.500000 0.829496 0.389860
v 0.500000 0.982230 0.389860
v -0.500000 0.003162 0.389860
v -0.386056 0.003162 0.389860
v -0.386056 0.003162 0.500000
v -0.500000 0.003162 0.500000
v 0.391762 0.003162 0.389860
v 0.391762 0.003162 0.500000
v 0.500000 0.003162 0.389860
v 0.500000 0.003162 0.500000
v -0.500000 0.003162 -0.500000
v -0.386056 0.003162 -0.500000
v -0.386056 0.003162 -0.391762
v -0.500000 0.003162 -0.391762
v 0.391762 0.003162 -0.391762
v 0.500000 0.003162 -0.391762
v 0.391762 0.003162 -0.500000
v 0.500000 0.003162 -0.500000
v -0.386056 2.077638 -0.431668
v -0.500000 2.077638 -0.431668
v -0.386056 2.077638 -0.539907
v -0.500000 2.077638 -0.539907
v 0.391762 2.077638 -0.431668
v 0.391762 2.077638 -0.539907
v 0.500000 2.077638 -0.431668
v 0.500000 2.077638 -0.539907
v -0.386056 2.077638 -0.524149
v -0.500000 2.077638 -0.524149
v -0.500000 0.982230 -0.484243
v -0.500000 0.829496 -0.484243
v -0.500000 0.003162 -0.484243
v -0.386056 0.003162 -0.484243
v -0.386056 0.829496 -0.484243
v 0.391762 0.829496 -0.484243
v 0.391762 0.003162 -0.484243
v 0.500000 0.003162 -0.484243
v 0.500000 0.829496 -0.484243
v 0.500000 0.982230 -0.484243
v 0.500000 2.077638 -0.524149
v 0.391762 2.077638 -0.524149
v 0.391762 0.982230 -0.484243
v -0.386056 0.982230 -0.484243
v 0.500000 2.077638 -0.450348
v 0.391762 2.077638 -0.450348
v 0.391762 0.982230 -0.410442
v -0.386056 0.982230 -0.410442
v -0.386056 2.077638 -0.450348
v -0.500000 2.077638 -0.450348
v -0.500000 0.982230 -0.410442
v -0.500000 0.829496 -0.410442
v -0.500000 0.003162 -0.410442
v -0.386056 0.003162 -0.410442
v -0.386056 0.829496 -0.410442
v 0.391762 0.829496 -0.410442
v 0.391762 0.003162 -0.410442
v 0.500000 0.003162 -0.410442
v 0.500000 0.829496 -0.410442
v 0.500000 0.982230 -0.410442
v 0.500000 2.061921 -0.431096
v 0.391762 2.061921 -0.431096
v 0.391762 2.061921 -0.449776
v 0.391762 2.061921 -0.523577
v 0.391762 2.061921 -0.539334
v 0.500000 2.061921 -0.539334
v 0.500000 2.061921 -0.523577
v 0.500000 2.061921 -0.449776
v -0.386056 2.062014 -0.431172
v -0.500000 2.062014 -0.431172
v -0.500000 2.062014 -0.449853
v -0.500000 2.062013 -0.523654
v -0.500000 2.062014 -0.539411
v -0.386056 2.062014 -0.539411
v -0.386056 2.062013 -0.523654
v -0.386056 2.062014 -0.449853
v 0.500000 1.387925 -0.406541
v 0.391762 1.387925 -0.406541
v 0.391762 1.387925 -0.425222
v 0.391762 1.387925 -0.499022
v 0.391762 1.387925 -0.514780
v 0.500000 1.387925 -0.514780
v 0.500000 1.387925 -0.499022
v 0.500000 1.387925 -0.425222
v -0.386056 1.388096 -0.406544
v -0.500000 1.388096 -0.406544
v -0.500000 1.388096 -0.425224
v -0.500000 1.388096 -0.499025
v -0.500000 1.388096 -0.514782
v -0.386056 1.388096 -0.514782
v -0.386056 1.388096 -0.499025
v -0.386056 1.388096 -0.425224
v -0.230493 2.061995 -0.462298
v -0.230493 1.388062 -0.437685
v -0.230493 1.388062 -0.511486
v -0.230493 2.061995 -0.536099
v -0.074929 2.061976 -0.470326
v -0.074929 1.388027 -0.445727
v -0.074929 1.388027 -0.519528
v -0.074929 2.061976 -0.544127
v 0.080634 2.061958 -0.470311
v 0.080634 1.387993 -0.445727
v 0.080634 1.387993 -0.519528
v 0.080634 2.061958 -0.544112
v 0.236198 2.061939 -0.462252
v 0.236198 1.387959 -0.437683
v 0.236198 1.387959 -0.511484
v 0.236198 2.061939 -0.536053
vt 0.375000 0.000000
vt 0.625000 0.000000
vt 0.375000 0.250000
vt 0.625000 0.250000
vt 0.375000 0.500000
vt 0.625000 0.500000
vt 0.375000 0.750000
vt 0.625000 0.750000
vt 0.375000 1.000000
vt 0.625000 1.000000
vt 0.875000 0.000000
vt 0.875000 0.250000
vt 0.125000 0.000000
vt 0.125000 0.250000
vt 0.403486 0.500000
vt 0.403486 0.750000
vt 0.403486 0.000000
vt 0.403486 1.000000
vt 0.403486 0.250000
vt 0.597940 0.500000
vt 0.597940 0.750000
vt 0.597940 0.000000
vt 0.597940 1.000000
vt 0.597940 0.250000
vt 0.597940 0.472940
vt 0.403486 0.472940
vt 0.152060 0.250000
vt 0.375000 0.472940
vt 0.152060 0.000000
vt 0.375000 0.777060
vt 0.403486 0.777060
vt 0.597940 0.777060
vt 0.625000 0.777060
vt 0.847940 0.000000
vt 0.625000 0.472940
vt 0.847940 0.250000
vt 0.597940 0.277535
vt 0.403486 0.277535
vt 0.347465 0.250000
vt 0.375000 0.277535
vt 0.347465 0.000000
vt 0.375000 0.972465
vt 0.403486 0.972465
vt 0.597940 0.972465
vt 0.625000 0.972465
vt 0.652535 0.000000
vt 0.625000 0.277535
vt 0.652535 0.250000
vt 0.375000 0.972465
vt 0.403486 0.972465
vt 0.403486 1.000000
vt 0.375000 1.000000
vt 0.597940 1.000000
vt 0.597940 0.972465
vt 0.625000 0.972465
vt 0.625000 1.000000
vt 0.375000 0.750000
vt 0.403486 0.750000
vt 0.403486 0.777060
vt 0.375000 0.777060
vt 0.625000 0.777060
vt 0.597940 0.777060
vt 0.597940 0.750000
vt 0.625000 0.750000
vt 0.375000 0.472940
vt 0.403486 0.472940
vt 0.403486 0.500000
vt 0.375000 0.500000
vt 0.597940 0.500000
vt 0.597940 0.472940
vt 0.625000 0.472940
vt 0.625000 0.500000
vt 0.403486 0.496061
vt 0.375000 0.496061
vt 0.128939 0.250000
vt 0.375000 0.496061
vt 0.128939 0.000000
vt 0.375000 0.753939
vt 0.375000 0.753939
vt 0.403486 0.753939
vt 0.403486 0.753939
vt 0.597940 0.753939
vt 0.597940 0.753939
vt 0.625000 0.753939
vt 0.625000 0.753939
vt 0.871061 0.000000
vt 0.625000 0.496061
vt 0.871061 0.250000
vt 0.625000 0.496061
vt 0.597940 0.496061
vt 0.597940 0.496061
vt 0.403486 0.496061
vt 0.625000 0.477610
vt 0.597940 0.477610
vt 0.597940 0.477610
vt 0.403486 0.477610
vt 0.403486 0.477610
vt 0.375000 0.477610
vt 0.147390 0.250000
vt 0.375000 0.477610
vt 0.147390 0.000000
vt 0.375000 0.772390
vt 0.375000 0.772390
vt 0.403486 0.772390
vt 0.403486 0.772390
vt 0.597940 0.772390
vt 0.597940 0.772390
vt 0.625000 0.772390
vt 0.625000 0.772390
vt 0.852610 0.000000
vt 0.625000 0.477610
vt 0.852610 0.250000
vt 0.625000 0.472940
vt 0.597940 0.472940
vt 0.597940 0.477610
vt 0.597940 0.496061
vt 0.597940 0.500000
vt 0.625000 0.500000
vt 0.625000 0.496061
vt 0.625000 0.477610
vt 0.403486 0.472940
vt 0.375000 0.472940
vt 0.375000 0.477610
vt 0.375000 0.496061
vt 0.375000 0.500000
vt 0.403486 0.500000
vt 0.403486 0.496046
vt 0.403486 0.477638
vt 0.625000 0.472940
vt 0.597940 0.472940
vt 0.597940 0.477610
vt 0.597940 0.496061
vt 0.597940 0.500000
vt 0.625000 0.500000
vt 0.625000 0.496061
vt 0.625000 0.477610
vt 0.403486 0.472940
vt 0.375000 0.472940
vt 0.375000 0.477610
vt 0.375000 0.496061
vt 0.375000 0.500000
vt 0.403486 0.500000
vt 0.403486 0.496041
vt 0.403486 0.477621
vt 0.597940 0.495979
vt 0.597940 0.477704
vt 0.597940 0.477712
vt 0.597940 0.496006
vt 0.597940 0.477692
vt 0.597940 0.477685
vt 0.597940 0.495995
vt 0.597940 0.496017
vt 0.597940 0.477671
vt 0.597940 0.477666
vt 0.597940 0.496012
vt 0.597940 0.496028
vt 0.597940 0.477651
vt 0.597940 0.477648
vt 0.597940 0.496028
vt 0.597940 0.496039
vt 0.597940 0.477631
vt 0.597940 0.477629
vt 0.597940 0.496044
vt 0.597940 0.496050
vn 0.000000 0.000000 1.000000
vn 0.000000 0.000000 1.000000
vn 0.000000 0.000000 1.000000
vn 0.000000 0.000000 1.000000
vn 0.000000 1.000000 0.000000
vn 0.000000 1.000000 0.000000
vn 0.000000 1.000000 0.000000
vn 0.000000 1.000000 0.000000
vn 0.000000 -0.026454 -0.999650
vn 0.000000 -0.009232 -0.999957
vn 0.000000 0.000000 -1.000000
vn 0.000000 0.000000 -1.000000
vn 0.000000 -1.000000 0.000000
vn 0.000000 -1.000000 0.000000
vn 0.000000 -1.000000 0.000000
vn 0.000000 -1.000000 0.000000
vn 1.000000 0.000000 0.000000
vn 1.000000 0.000000 0.000000
vn 1.000000 0.000000 0.000000
vn 1.000000 0.000000 0.000000
vn -1.000000 0.000000 0.000000
vn -1.000000 0.000000 0.000000
vn -1.000000 0.000000 0.000000
vn -1.000000 0.000000 0.000000
vn 0.000000 -0.008925 -0.999960
vn 0.000000 0.000000 -1.000000
vn 0.000000 -1.000000 0.000000
vn 0.000000 -1.000000 0.000000
vn 0.000000 -1.000000 0.000000
vn 0.000000 -1.000000 0.000000
vn 0.000000 0.000000 1.000000
vn 0.000000 0.000000 1.000000
vn 0.000000 1.000000 0.000000
vn 0.000000 1.000000 0.000000
vn 0.000000 -0.026457 -0.999650
vn 0.000000 0.000000 -1.000000
vn 0.000000 -1.000000 0.000000
vn 0.000000 -1.000000 0.000000
vn 0.000000 -1.000000 0.000000
vn 0.000000 -1.000000 0.000000
vn 0.000000 0.000000 1.000000
vn 0.000000 0.000000 1.000000
vn 0.000000 1.000000 0.000000
vn 0.000000 1.000000 0.000000
vn 0.000000 1.000000 0.000000
vn 0.000000 1.000000 0.000000
vn 0.000000 1.000000 0.000000
vn 0.000000 1.000000 0.000000
vn 0.000000 1.000000 0.000000
vn 0.000000 1.000000 0.000000
vn 0.000000 1.000000 -0.000002
vn 0.000000 1.000000 -0.000002
vn -1.000000 0.000000 0.000000
vn -1.000000 0.000000 0.000000
vn -1.000000 0.000000 0.000000
vn -1.000000 0.000000 0.000000
vn 0.000000 -1.000000 0.000000
vn 0.000000 -1.000000 0.000000
vn 0.000000 -1.000000 0.000000
vn 0.000000 -1.000000 0.000000
vn 0.000000 -1.000000 0.000000
vn 0.000000 -1.000000 0.000000
vn 0.000000 -1.000000 0.000000
vn 0.000000 -1.000000 0.000000
vn 0.000000 -1.000000 0.000000
vn 0.000000 -1.000000 0.000000
vn 0.000000 -1.000000 0.000000
vn 0.000000 -1.000000 0.000000
vn 1.000000 0.000000 0.000000
vn 1.000000 0.000000 0.000000
vn 1.000000 0.000000 0.000000
vn 1.000000 0.000000 0.000000
vn 0.000000 1.000000 -0.000001
vn 0.000000 1.000000 0.000000
vn 0.000000 1.000000 0.000000
vn 0.000000 1.000000 -0.000001
vn 0.000000 1.000000 0.000000
vn 0.000000 -1.000000 0.000000
vn 0.000000 -1.000000 0.000000
vn 0.000000 -1.000000 0.000000
vn 0.000000 -1.000000 0.000000
vn 0.000000 1.000000 0.000000
vn 0.000000 0.000000 -1.000000
vn 0.000000 0.000000 -1.000000
vn 0.000000 0.000000 -1.000000
vn 0.000000 0.000000 -1.000000
vn 1.000000 0.000000 0.000000
vn 1.000000 0.000000 0.000000
vn 1.000000 0.000000 0.000000
vn 1.000000 0.000000 0.000000
vn 0.000000 0.000000 1.000000
vn 0.000000 0.000000 1.000000
vn -1.000000 0.000000 0.000000
vn -1.000000 0.000000 0.000000
vn -1.000000 0.000000 0.000000
vn -1.000000 0.000000 0.000000
vn -1.000000 0.000000 0.000000
vn -1.000000 0.000000 0.000000
vn 0.000000 0.000000 -1.000000
vn 0.000000 0.000000 -1.000000
vn 0.000000 0.000000 -1.000000
vn 0.000000 0.000000 -1.000000
vn 1.000000 0.000000 0.000000
vn 1.000000 0.000000 0.000000
vn 0.000000 0.000000 1.000000
vn 0.000000 0.000000 1.000000
vn 0.000000 0.000000 -1.000000
vn 0.000000 0.000000 -1.000000
vn 1.000000 0.000000 0.000000
vn 1.000000 0.000000 0.000000
vn 1.000000 0.000000 0.000000
vn 1.000000 0.000000 0.000000
vn 0.000000 0.000000 1.000000
vn 0.000000 0.000000 1.000000
vn 0.000000 0.000000 1.000000
vn 0.000000 0.000000 1.000000
vn -1.000000 0.000000 0.000000
vn -1.000000 0.000000 0.000000
vn 0.000000 0.000000 1.000000
vn 0.000000 0.000000 1.000000
vn 0.000000 0.000000 1.000000
vn 0.000000 0.000000 1.000000
vn -1.000000 0.000000 0.000000
vn -1.000000 0.000000 0.000000
vn -1.000000 0.000000 0.000000
vn -1.000000 0.000000 0.000000
vn 0.000000 0.000000 -1.000000
vn 0.000000 0.000000 -1.000000
vn 1.000000 0.000000 0.000000
vn 1.000000 0.000000 0.000000
vn 0.000000 0.036398 0.999337
vn 0.000000 0.036398 0.999337
vn 0.000000 0.036475 0.999335
vn 0.000000 0.036475 0.999335
vn 1.000000 -0.000000 0.000000
vn 1.000000 -0.000000 0.000000
vn 1.000000 -0.000000 0.000000
vn 1.000000 -0.000000 0.000000
vn 0.000000 -0.036475 -0.999335
vn 0.000000 -0.036475 -0.999335
vn -1.000000 0.000000 0.000000
vn -1.000000 0.000000 0.000000
vn -1.000000 -0.000000 0.000000
vn -1.000000 0.000000 0.000000
vn -1.000000 0.000000 0.000000
vn -1.000000 0.000000 0.000000
vn 0.000000 0.036407 0.999337
vn 0.000000 0.036407 0.999337
vn 0.000000 0.036407 0.999337
vn 0.000000 0.036407 0.999337
vn 1.000000 0.000000 0.000000
vn 1.000000 0.000000 0.000000
vn 0.000000 -0.036407 -0.999337
vn 0.000000 -0.036407 -0.999337
vn 0.000000 1.000000 0.000000
vn 0.000000 1.000000 0.000000
vn 0.000000 1.000000 0.000010
vn 0.000000 1.000000 0.000010
vn -1.000000 0.000000 0.000000
vn -1.000000 0.000000 0.000000
vn -1.000000 0.000000 0.000000
vn -1.000000 0.000000 0.000000
vn -1.000000 0.000000 0.000000
vn -1.000000 0.000000 0.000000
vn -1.000000 0.000000 0.000000
vn -1.000000 0.000000 0.000000
vn 0.000000 -1.000000 0.000000
vn 0.000000 -1.000000 0.000000
vn 0.000000 -1.000000 0.000000
vn 0.000000 -1.000000 0.000000
vn 1.000000 0.000000 0.000000
vn 1.000000 0.000000 0.000000
vn 1.000000 0.000000 0.000000
vn 1.000000 0.000000 0.000000
vn 0.000000 -1.000000 0.000000
vn 0.000000 -1.000000 0.000000
vn 0.000000 -1.000000 0.000000
vn 0.000000 -1.000000 0.000000
vn -1.000000 0.000000 0.000000
vn -1.000000 0.000000 0.000000
vn -1.000000 0.000000 0.000000
vn -1.000000 0.000000 0.000000
vn 0.000000 -1.000000 0.000000
vn 0.000000 -1.000000 0.000000
vn 0.000000 -1.000000 0.000000
vn 0.000000 -1.000000 0.000000
vn 1.000000 0.000000 0.000000
vn 1.000000 0.000000 0.000000
vn 1.000000 0.000000 0.000000
vn 1.000000 0.000000 0.000000
vn 1.000000 0.000000 0.000000
vn 1.000000 0.000000 0.000000
vn 1.000000 0.000000 0.000000
vn 1.000000 0.000000 0.000000
vn 0.000000 1.000000 0.000005
vn 0.000000 1.000000 0.000000
vn 0.000000 1.000000 0.000000
vn 0.000000 1.000000 0.000005
vn -1.000000 0.000000 0.000000
vn -1.000000 -0.000000 0.000000
vn -1.000000 -0.000000 0.000000
vn -1.000000 0.000000 0.000000
vn 0.000000 1.000000 0.000000
vn 0.000000 1.000000 0.000000
vn 0.000000 1.000000 0.000000
vn 0.000000 1.000000 0.000000
vn 1.000000 0.000000 0.000000
vn 1.000000 0.000000 0.000000
vn 1.000000 0.000000 0.000000
vn 1.000000 0.000000 0.000000
vn 0.000000 0.036407 0.999337
vn 0.000000 0.036407 0.999337
vn 0.000000 0.036408 0.999337
vn 0.000000 0.036408 0.999337
vn -1.000000 -0.000000 0.000000
vn -1.000000 0.000000 0.000000
vn -1.000000 0.000001 0.000000
vn -1.000000 -0.000001 0.000000
vn -1.000000 -0.000000 0.000000
vn -1.000000 -0.000001 0.000000
vn -1.000000 0.000000 0.000000
vn -1.000000 0.000001 0.000000
vn 0.000000 -0.036407 -0.999337
vn 0.000000 -0.036407 -0.999337
vn 0.000000 -0.036406 -0.999337
vn 0.000000 -0.036406 -0.999337
vn 1.000000 0.000000 0.000000
vn 1.000000 0.000000 0.000000
vn 1.000000 0.000000 0.000000
vn 1.000000 0.000000 0.000000
vn 1.000000 0.000000 0.000000
vn 1.000000 0.000000 0.000000
vn 1.000000 0.000000 0.000000
vn 1.000000 0.000000 0.000000
vn 0.000000 0.036412 0.999337
vn 0.000000 0.036412 0.999337
vn 0.000000 0.031705 0.999497
vn 0.000000 0.031705 0.999497
vn -1.000000 0.000000 0.000000
vn -1.000000 0.000000 0.000000
vn -1.000000 0.000000 0.000000
vn -1.000000 0.000000 0.000000
vn -1.000000 0.000000 0.000000
vn -1.000000 0.000000 0.000000
vn -1.000000 0.000000 0.000000
vn -1.000000 0.000000 0.000000
vn 0.000000 -0.036412 -0.999337
vn 0.000000 -0.036412 -0.999337
vn 0.000000 -0.031709 -0.999497
vn 0.000000 -0.031709 -0.999497
vn 1.000000 -0.000000 0.000000
vn 1.000000 -0.000000 0.000000
vn 1.000000 -0.000000 0.000000
vn 1.000000 -0.000002 0.000000
vn 1.000000 -0.000000 0.000000
vn 1.000000 -0.000000 0.000000
vn 1.000000 -0.000000 0.000000
vn 1.000000 -0.000001 0.000000
vn -0.000220 -1.000000 0.000000
vn -0.000220 -1.000000 0.000000
vn -0.000220 -1.000000 0.000000
vn -0.000220 -1.000000 0.000000
vn -0.079838 0.036302 0.996147
vn -0.079838 0.036302 0.996147
vn -0.065752 0.036351 0.997174
vn -0.065778 0.036351 0.997172
vn 0.000119 1.000000 -0.000002
vn 0.000119 1.000000 -0.000002
vn 0.000119 1.000000 -0.000003
vn 0.000119 1.000000 -0.000003
vn 0.079838 -0.036302 -0.996147
vn 0.079838 -0.036302 -0.996147
vn 0.065778 -0.036351 -0.997172
vn 0.065752 -0.036351 -0.997174
vn 0.065662 0.036419 0.997177
vn 0.065676 0.036419 0.997176
vn 0.079749 0.036393 0.996150
vn 0.079749 0.036393 0.996150
vn -0.000220 -1.000000 0.000000
vn -0.000220 -1.000000 0.000000
vn -0.000220 -1.000000 0.000000
vn -0.000220 -1.000000 0.000000
vn -0.065676 -0.036419 -0.997176
vn -0.065663 -0.036419 -0.997177
vn -0.079749 -0.036393 -0.996150
vn -0.079749 -0.036393 -0.996150
vn 0.000119 1.000000 -0.000003
vn 0.000119 1.000000 -0.000003
vn 0.000119 1.000000 -0.000003
vn 0.000119 1.000000 -0.000003
vn 0.025760 0.036463 0.999003
vn 0.025792 0.036463 0.999002
vn -0.000220 -1.000000 0.000000
vn -0.000220 -1.000000 0.000000
vn -0.025792 -0.036463 -0.999002
vn -0.025760 -0.036463 -0.999003
vn 0.000119 1.000000 -0.000003
vn 0.000119 1.000000 -0.000003
vn -0.025898 0.036440 0.999000
vn -0.025857 0.036440 0.999001
vn -0.000220 -1.000000 0.000000
vn -0.000220 -1.000000 0.000000
vn 0.025857 -0.036440 -0.999001
vn 0.025898 -0.036440 -0.999000
vn 0.000119 1.000000 -0.000004
vn 0.000119 1.000000 -0.000004
s 1
g pCube1
f 1/1/1 11/17/2 12/19/3 3/3/4
s 2
f 3/3/5 12/19/6 26/38/7 27/40/8
s 3
f 5/5/9 9/15/10 10/16/11 7/7/12
s off
f 33/49/13 34/50/14 35/51/15 36/52/16
s 4
f 2/2/17 31/46/18 32/48/19 4/4/20
s 5
f 28/41/21 1/1/22 3/3/23 27/39/24
s 3
f 9/15/10 13/20/25 14/21/26 10/16/11
s 6
f 11/18/27 29/43/28 30/44/29 15/23/30
s 1
f 12/19/3 11/17/2 15/22/31 16/24/32
s 2
f 26/38/7 12/19/6 16/24/33 25/37/34
s 3
f 13/20/25 6/6/35 8/8/36 14/21/26
s off
f 38/53/37 37/54/38 39/55/39 40/56/40
s 1
f 16/24/32 15/22/31 2/2/41 4/4/42
s 2
f 32/47/43 25/37/34 16/24/33 4/4/44
f 76/96/45 18/26/46 17/25/47 75/95/48
s 7
f 50/65/49 49/66/50 77/97/51 78/98/52
s 5
f 80/101/53 20/29/54 19/27/55 79/99/56
s 9
f 81/103/57 82/104/58 43/59/59 44/60/60
s 6
f 22/32/61 21/31/62 83/105/63 84/106/64
s 10
f 46/61/65 45/62/66 85/107/67 86/108/68
s 4
f 24/36/69 23/34/70 87/110/71 88/112/72
s 11
f 74/94/73 53/70/74 55/71/75 73/93/76
s 2
f 18/26/46 26/38/7 25/37/34 17/25/47
f 27/40/8 26/38/7 18/26/46 19/28/77
s 5
f 20/29/54 28/41/21 27/39/24 19/27/55
s 6
f 20/30/78 21/31/62 29/43/28 28/42/79
f 30/44/29 29/43/28 21/31/62 22/32/61
f 31/45/80 30/44/29 22/32/61 23/33/81
s 4
f 32/48/19 31/46/18 23/34/70 24/36/69
s 2
f 24/35/82 17/25/47 25/37/34 32/47/43
s off
f 28/42/83 29/43/84 34/50/85 33/49/86
f 29/43/87 11/18/88 35/51/89 34/50/90
s 1
f 11/18/2 1/9/1 36/52/91 35/51/92
s 5
f 1/9/22 28/42/21 33/49/93 36/52/94
s off
f 15/23/95 30/44/96 37/54/97 38/53/98
f 30/44/99 31/45/100 39/55/101 37/54/102
s 4
f 31/45/18 2/10/17 40/56/103 39/55/104
s 1
f 2/10/41 15/23/31 38/53/105 40/56/106
s 3
f 7/7/12 10/16/11 42/58/107 41/57/108
s 12
f 83/105/109 21/31/110 43/59/111 82/104/112
s off
f 21/31/113 20/30/114 44/60/115 43/59/116
s 5
f 20/30/54 80/102/53 81/103/117 44/60/118
s off
f 23/33/119 22/32/120 45/62/121 46/61/122
s 13
f 22/32/123 84/106/124 85/107/125 45/62/126
s 3
f 14/21/26 8/8/36 48/64/127 47/63/128
s 4
f 87/109/71 23/33/70 46/61/129 86/108/130
s 14
f 19/28/131 18/26/132 113/137/133 114/138/134
s 15
f 18/26/135 76/96/136 120/144/137 113/137/138
s 3
f 9/15/10 5/5/9 117/141/139 118/142/140
s 5
f 79/100/56 19/28/55 114/138/141 115/139/142
s 16
f 75/95/143 17/25/144 106/130/145 107/131/146
s 17
f 17/25/147 24/35/148 105/129/149 106/130/150
s 4
f 24/35/69 88/111/72 112/136/151 105/129/152
s 3
f 6/6/35 13/20/25 109/133/153 110/134/154
s 7
f 58/74/155 57/73/156 51/67/157 52/68/158
s 5
f 5/5/159 59/76/160 116/140/161 117/141/162
f 7/13/163 60/77/164 59/75/160 5/14/159
f 61/79/165 60/78/164 7/7/163 41/57/166
s 9
f 41/57/167 42/58/168 62/80/169 61/79/170
s 12
f 10/16/171 63/81/172 62/80/173 42/58/174
s 6
f 64/82/175 63/81/176 10/16/177 14/21/178
s 13
f 65/83/179 64/82/180 14/21/181 47/63/182
s 10
f 66/84/183 65/83/184 47/63/185 48/64/186
s 4
f 8/8/187 67/85/188 66/84/189 48/64/190
f 68/88/191 67/86/188 8/11/187 6/12/192
f 111/135/193 68/87/191 6/6/192 110/134/194
s 11
f 54/69/195 70/90/196 69/89/197 56/72/198
s 16
f 13/20/199 71/91/200 108/132/201 109/133/202
s 2
f 9/15/203 72/92/204 71/91/205 13/20/206
s 15
f 119/143/207 72/92/208 9/15/209 118/142/210
s 11
f 70/90/196 74/94/73 73/93/76 69/89/197
s 16
f 71/91/200 75/95/143 107/131/146 108/132/201
s 2
f 72/92/204 76/96/45 75/95/48 71/91/205
s 15
f 120/144/137 76/96/136 72/92/208 119/143/207
s 7
f 78/98/52 77/97/51 57/73/156 58/74/155
s 5
f 59/76/160 79/100/56 115/139/142 116/140/161
f 60/77/164 80/101/53 79/99/56 59/75/160
f 81/103/117 80/102/53 60/78/164 61/79/165
s 9
f 61/79/170 62/80/169 82/104/58 81/103/57
s 12
f 63/81/172 83/105/109 82/104/112 62/80/173
s 6
f 84/106/64 83/105/63 63/81/176 64/82/175
s 13
f 85/107/125 84/106/124 64/82/180 65/83/179
s 10
f 86/108/68 85/107/67 65/83/184 66/84/183
s 4
f 67/85/188 87/109/71 86/108/130 66/84/189
f 88/112/72 87/110/71 67/86/188 68/88/191
f 112/136/151 88/111/72 68/87/191 111/135/193
s 17
f 90/114/211 89/113/212 55/71/213 53/70/214
s 16
f 91/115/215 90/114/216 53/70/217 74/94/218
f 92/116/219 91/115/215 74/94/218 70/90/220
f 93/117/221 92/116/219 70/90/220 54/69/222
s 3
f 94/118/223 93/117/224 54/69/225 56/72/226
s 4
f 69/89/227 95/119/228 94/118/229 56/72/230
f 73/93/231 96/120/232 95/119/228 69/89/227
f 89/113/233 96/120/232 73/93/231 55/71/234
s 14
f 98/122/235 97/121/236 49/66/237 50/65/238
s 5
f 99/123/239 98/122/240 50/65/241 78/98/242
f 100/124/243 99/123/239 78/98/242 58/74/244
f 101/125/245 100/124/243 58/74/244 52/68/246
s 3
f 102/126/247 101/125/248 52/68/249 51/67/250
s 15
f 57/73/251 103/127/252 102/126/253 51/67/254
f 77/97/255 104/128/256 103/127/252 57/73/251
f 97/121/257 104/128/256 77/97/255 49/66/258
s 17
f 106/130/150 105/129/149 89/113/212 90/114/211
s 16
f 107/131/146 106/130/145 90/114/216 91/115/215
f 109/133/202 108/132/201 92/116/219 93/117/221
s 3
f 110/134/154 109/133/153 93/117/224 94/118/223
s 4
f 95/119/228 111/135/193 110/134/194 94/118/229
f 96/120/232 112/136/151 111/135/193 95/119/228
f 105/129/152 112/136/151 96/120/232 89/113/233
s 14
f 114/138/134 113/137/133 97/121/236 98/122/235
s 5
f 115/139/142 114/138/141 98/122/240 99/123/239
f 116/140/161 115/139/142 99/123/239 100/124/243
f 117/141/162 116/140/161 100/124/243 101/125/245
s 3
f 118/142/140 117/141/139 101/125/248 102/126/247
s 15
f 103/127/252 119/143/207 118/142/210 102/126/253
f 113/137/138 120/144/137 104/128/256 97/121/257
s 22
f 108/132/259 107/131/260 134/162/261 135/163/262
s 23
f 107/131/263 91/115/264 133/161/265 134/162/266
s 24
f 91/115/267 92/116/268 136/164/269 133/161/270
s 25
f 92/116/271 108/132/272 135/163/273 136/164/274
s 23
f 122/150/275 121/149/276 104/147/277 120/146/278
s 22
f 123/151/279 122/150/280 120/146/281 119/145/282
s 25
f 124/152/283 123/151/284 119/145/285 103/148/286
s 24
f 121/149/287 124/152/288 103/148/289 104/147/290
s 23
f 126/154/291 125/153/292 121/149/276 122/150/275
s 22
f 127/155/293 126/154/294 122/150/280 123/151/279
s 25
f 128/156/295 127/155/296 123/151/284 124/152/283
s 24
f 125/153/297 128/156/298 124/152/288 121/149/287
s 23
f 130/158/299 129/157/300 125/153/292 126/154/291
s 22
f 131/159/301 130/158/302 126/154/294 127/155/293
s 25
f 132/160/303 131/159/304 127/155/296 128/156/295
s 24
f 129/157/305 132/160/306 128/156/298 125/153/297
s 23
f 134/162/266 133/161/265 129/157/300 130/158/299
s 22
f 135/163/262 134/162/261 130/158/302 131/159/301
s 25
f 136/164/274 135/163/273 131/159/304 132/160/303
s 24
f 133/161/270 136/164/269 132/160/306 129/157/305
