# This file uses meters as units for non-parametric coordinates.

mtllib rocklow1.mtl
g default
v 23.058737 -0.039017 66.150871
v 44.143876 -0.295133 76.492979
v 27.665539 7.345883 61.310646
v 44.324807 9.871091 65.409500
v 24.720394 10.027313 36.304540
v 35.438574 10.652607 29.080274
v 27.763954 -0.142549 22.368480
v 45.035084 -0.011432 24.785379
v 53.548728 9.670370 44.900728
v 42.694991 15.330901 37.374127
v 32.994513 13.716605 49.819662
v 13.341062 -0.331049 46.506751
v 60.540685 -0.222837 46.477079
v 48.544177 -0.106915 37.165681
v 12.577279 -0.596384 38.618724
v 44.412397 15.695554 51.287351
v 58.964617 0.044429 61.049145
v 22.270724 0.019649 54.304411
v 22.265424 13.158913 50.595920
v 57.167134 8.976304 58.259700
vt 0.313779 0.529642
vt 0.578890 0.501752
vt 0.500152 0.827046
vt 0.363289 0.713370
vt 0.158182 0.654155
vt 0.284212 0.587714
vt 0.308030 0.686951
vt 0.211678 0.751774
vt 0.877660 0.661747
vt 0.912009 0.791287
vt 0.761415 0.972161
vt 0.704212 0.855010
vt 0.126717 0.501752
vt 0.263580 0.501752
vt 0.044974 0.944489
vt 0.001867 0.795247
vt 0.212460 0.755514
vt 0.239026 0.998008
vt 0.001867 0.287132
vt 0.440936 0.286743
vt 0.408945 0.380061
vt 0.055707 0.398607
vt 0.022375 0.194908
vt 0.329340 0.164510
vt 0.054203 0.051778
vt 0.296697 0.001992
vt 0.368828 0.497086
vt 0.103717 0.498012
vt 0.614243 0.373968
vt 0.857516 0.266050
vt 0.812229 0.365287
vt 0.773000 0.451248
vt 0.821354 0.201227
vt 0.507976 0.164510
vt 0.497276 0.001992
vt 0.707869 0.064923
vt 0.497276 0.286743
vt 0.447707 0.497086
vt 0.475285 0.380061
vt 0.598536 0.600231
vt 0.768050 0.705498
vt 0.608638 0.711706
vt 0.599234 0.803931
vt 0.584640 0.947060
vt 0.589528 0.500827
vt 0.773256 0.547590
vn -0.295935 0.684860 0.665875
vn -0.295935 0.684860 0.665875
vn -0.295935 0.684860 0.665875
vn -0.295935 0.684860 0.665875
vn -0.143230 0.982701 0.117405
vn 0.010720 0.989874 0.141542
vn 0.181812 0.982152 -0.048184
vn -0.053699 0.991857 -0.115485
vn -0.143230 0.982701 0.117405
vn -0.053699 0.991857 -0.115485
vn -0.269379 0.947597 -0.171741
vn -0.269379 0.947597 -0.171741
vn -0.219631 0.898050 0.381142
vn -0.219631 0.898050 0.381142
vn 0.010720 0.989874 0.141542
vn -0.143230 0.982701 0.117405
vn -0.151415 0.597318 -0.787582
vn -0.151415 0.597318 -0.787582
vn -0.151415 0.597318 -0.787582
vn -0.151415 0.597318 -0.787582
vn 0.004869 -0.999931 0.010699
vn 0.001812 -0.999794 0.020198
vn -0.000280 -0.999939 0.011019
vn -0.000335 -0.999908 0.013591
vn 0.008831 -0.999957 -0.002678
vn 0.008896 -0.999956 -0.002924
vn 0.001812 -0.999794 0.020198
vn 0.004869 -0.999931 0.010699
vn 0.011914 -0.999826 -0.014324
vn 0.011914 -0.999826 -0.014324
vn 0.008896 -0.999956 -0.002924
vn 0.008831 -0.999957 -0.002678
vn -0.000335 -0.999908 0.013591
vn -0.000280 -0.999939 0.011019
vn 0.000270 -0.999896 -0.014452
vn 0.000270 -0.999896 -0.014452
vn 0.690872 0.675447 0.257812
vn 0.735654 0.546792 -0.399791
vn 0.387399 0.906961 0.165358
vn 0.512238 0.699769 0.497932
vn 0.686217 0.421870 -0.592563
vn 0.669539 0.381785 -0.637149
vn 0.713980 0.505991 -0.483948
vn 0.713980 0.505991 -0.483948
vn 0.735654 0.546792 -0.399791
vn 0.856609 0.384346 -0.344238
vn 0.669539 0.381785 -0.637149
vn 0.686217 0.421870 -0.592563
vn 0.545722 0.522230 0.655335
vn 0.771463 0.516784 0.371187
vn 0.690872 0.675447 0.257812
vn 0.512238 0.699769 0.497932
vn 0.735654 0.546792 -0.399791
vn 0.690872 0.675447 0.257812
vn 0.771463 0.516784 0.371187
vn 0.856609 0.384346 -0.344238
vn -0.673211 0.420231 0.608435
vn -0.615740 0.760440 0.206387
vn -0.802966 0.575024 0.156819
vn -0.589425 0.728687 -0.348702
vn -0.705874 0.640068 -0.303404
vn -0.802966 0.575024 0.156819
vn -0.615740 0.760440 0.206387
vn -0.606547 0.573306 -0.550837
vn -0.705874 0.640068 -0.303404
vn -0.589425 0.728687 -0.348702
vn -0.424540 0.892379 0.153055
vn -0.615740 0.760440 0.206387
vn -0.673211 0.420231 0.608435
vn -0.664326 0.566604 0.487474
vn -0.664326 0.566604 0.487474
vn -0.589425 0.728687 -0.348702
vn -0.615740 0.760440 0.206387
vn -0.424540 0.892379 0.153055
s off
g pCube1
usemtl initialShadingGroup1
f 1/1/1 2/2/2 4/3/3 3/4/4
f 11/5/5 16/6/6 9/7/7 10/8/8
f 11/9/9 10/10/10 6/11/11 5/12/12
f 3/13/13 4/14/14 16/6/15 11/5/16
f 5/15/17 6/16/18 8/17/19 7/18/20
f 12/19/21 13/20/22 17/21/23 18/22/24
f 15/23/25 14/24/26 13/20/27 12/19/28
f 7/25/29 8/26/30 14/24/31 15/23/32
f 18/22/33 17/21/34 2/27/35 1/28/36
f 20/29/37 9/30/38 16/31/39 4/32/40
f 10/33/41 14/34/42 8/35/43 6/36/44
f 9/30/45 13/37/46 14/34/47 10/33/48
f 2/38/49 17/39/50 20/29/51 4/32/52
f 9/30/53 20/29/54 17/39/55 13/37/56
f 18/40/57 19/41/58 12/42/59
f 5/12/60 15/43/61 12/42/62 19/41/63
f 7/44/64 15/43/65 5/12/66
f 11/9/67 19/41/68 18/40/69 1/45/70 3/46/71
f 5/12/72 19/41/73 11/9/74
